<svg width="220" height="220" viewBox="0 0 220 220" fill="none" xmlns="http://www.w3.org/2000/svg">
<g clip-path="url(#clip0_108_21)">
<path d="M110 220C170.751 220 220 170.751 220 110C220 49.2487 170.751 0 110 0C49.2487 0 0 49.2487 0 110C0 170.751 49.2487 220 110 220Z" fill="#0D1E30"/>
<g filter="url(#filter0_d_108_21)">
<path d="M108.109 41.6626C111.402 39.9644 115.424 43.8901 113.678 47.1282C112.654 49.7682 108.797 50.4694 106.83 48.4551C104.747 46.5301 105.428 42.7076 108.109 41.6557V41.6626ZM72.6686 45.4163C74.6692 44.6051 77.2061 46.4063 76.9999 48.5582C77.2061 50.8819 74.3186 52.6007 72.2767 51.4938C69.5749 50.4626 69.8842 46.1451 72.6686 45.4163ZM145.255 51.5557C142.127 51.1844 141.632 46.3444 144.636 45.3682C146.974 44.2544 149.119 46.3513 149.462 48.5307C148.967 50.3869 147.386 52.0919 145.255 51.5557ZM80.733 60.2526C84.0811 58.1694 88.8524 61.2701 88.3367 65.0994C88.1649 68.9563 82.9536 71.1976 80.0111 68.5851C77.1649 66.5363 77.598 61.8338 80.733 60.2526ZM131.814 62.4663C133.306 58.6851 139.356 58.5613 141.054 62.2463C142.739 65.1132 140.669 68.6676 137.679 69.6438C133.712 70.3726 129.951 66.1513 131.814 62.4663ZM103.84 69.4307C103.805 66.1719 106.817 63.7519 109.959 63.5251C112.049 63.9376 114.317 64.8107 115.211 66.8801C116.882 69.7401 115.397 73.6657 112.392 74.9788C111.017 75.7351 109.381 75.4532 107.882 75.3638C105.593 74.2638 103.661 72.0844 103.84 69.4307ZM51.1361 74.1744C54.1955 72.3182 58.3205 75.6869 57.1586 78.9594C56.5261 81.7851 52.6624 82.9332 50.4555 81.1319C48.0974 79.4407 48.4686 75.3776 51.143 74.1676L51.1361 74.1744ZM164.312 74.1607C166.904 72.1807 171.187 74.4563 170.871 77.6738C171.05 80.6094 167.344 82.8301 164.773 81.3176C161.94 80.0594 161.645 75.7694 164.312 74.1676V74.1607ZM118.662 80.0113C122.939 78.4988 128.026 80.3069 130.46 84.0676C133.677 88.6532 131.972 95.6382 126.974 98.2713C121.804 101.386 114.249 98.7526 112.33 93.0601C110.165 87.9726 113.327 81.6063 118.656 80.0113H118.662ZM93.548 80.5132C98.2917 78.3132 104.679 80.1557 106.968 84.9269C109.663 89.5744 107.58 96.0438 102.76 98.4432C97.9342 101.145 91.1211 99.0963 88.7905 94.1119C86.1711 89.2857 88.4949 82.7338 93.548 80.5132ZM68.4061 88.9626C68.7705 85.9582 71.6511 83.9988 74.5592 83.7926C76.0759 83.9527 77.4933 84.6227 78.5798 85.6929C79.6663 86.7632 80.3575 88.1704 80.5405 89.6844C80.3342 92.7782 77.9074 95.7894 74.5799 95.7757C70.9155 96.0851 67.7049 92.4963 68.4061 88.9626ZM142.67 84.4526C146.43 82.3007 151.649 85.4288 151.484 89.6776C151.738 94.1807 145.963 97.3501 142.223 94.7101C138.332 92.5101 138.634 86.3226 142.67 84.4526ZM83.3386 100.313C87.7249 99.1238 92.7574 101.159 94.9092 105.133C97.2674 109.134 96.3049 114.689 92.6405 117.631C87.9311 121.935 79.2617 120.203 76.7592 114.331C73.8786 108.948 77.378 101.729 83.3317 100.306L83.3386 100.313ZM130.962 100.293C135.231 99.0894 140.25 100.705 142.546 104.534C145.585 108.914 144.134 115.452 139.617 118.271C134.874 121.55 127.545 119.831 124.932 114.703C121.77 109.402 124.953 101.908 130.962 100.293ZM55.0617 105.284C58.8567 103.874 63.0642 107.993 61.5243 111.698C60.5893 115.067 55.7561 116.318 53.2605 113.829C50.3386 111.492 51.418 106.301 55.0617 105.284ZM157.974 110.66C157.902 109.147 158.432 107.666 159.446 106.541C160.461 105.416 161.878 104.737 163.391 104.651C165.99 105.064 168.52 107.126 168.314 109.911C168.554 113.589 164.051 116.084 160.861 114.359C159.369 113.609 158.606 112.104 157.974 110.66ZM36.3961 107.113C38.6786 106.129 41.5042 108.075 40.9817 110.571C40.858 113.396 36.6161 114.489 35.0624 112.124C33.6874 110.481 34.5124 107.958 36.3961 107.106V107.113ZM180.42 107.051C182.029 105.93 184.614 106.734 185.247 108.584C186.326 110.605 184.346 113.369 182.036 113.032C178.791 113.321 177.746 108.46 180.42 107.051ZM95.7411 120.615C101.75 119.082 108.212 124.011 108.254 130.103C108.639 136.256 102.272 141.708 96.1261 140.291C91.3686 139.535 87.6355 135.025 87.7936 130.302C87.7799 125.778 91.2449 121.571 95.7411 120.615ZM119.542 120.608C125.64 118.931 132.295 123.949 132.199 130.178C132.522 136.214 126.355 141.488 120.333 140.284C114.661 139.569 110.481 133.444 112.062 128.026C112.86 124.424 115.926 121.495 119.542 120.601V120.608ZM73.6449 124.355C77.8661 123.647 81.8261 128.274 80.1142 132.22C78.863 136.428 72.648 137.562 69.898 134.131C66.6805 130.831 69.0867 124.809 73.6449 124.355ZM143.454 124.541C147.221 122.987 151.841 126.191 151.552 130.213C151.704 134.633 145.997 137.686 142.319 135.101C138.146 132.784 138.909 125.957 143.454 124.541ZM162.965 143.791C161.494 141.089 164.168 137.507 167.227 138.009C168.74 137.981 169.805 139.157 170.775 140.147C170.974 141.749 171.311 143.66 169.957 144.891C168.121 147.18 163.962 146.527 162.965 143.791ZM51.1224 138.758C53.9755 136.895 58.0799 139.679 57.4336 142.952C57.0899 145.86 53.3774 147.517 50.9367 145.867C48.3105 144.375 48.4067 140.119 51.1224 138.758ZM107.449 144.829C111.182 143.213 115.94 146.41 115.582 150.453C115.857 154.921 109.979 158.015 106.329 155.334C102.272 153.031 102.953 146.252 107.449 144.829ZM81.3655 150.817C84.5417 149.174 88.8042 152.013 88.5155 155.519C88.6117 158.393 85.7655 160.841 82.878 160.414C80.4924 160.366 78.9386 158.256 78.1686 156.255C78.2099 154.076 79.1242 151.649 81.3655 150.824V150.817ZM134.207 150.872C137.479 148.878 142.127 151.738 141.817 155.478C141.9 159.397 136.647 161.899 133.602 159.328C130.659 157.314 131.017 152.474 134.207 150.872ZM143.399 173.216C141.941 171.057 143.653 168.451 146.011 167.956C147.915 168.334 149.93 169.744 149.524 171.903C149.249 174.838 144.89 175.732 143.399 173.223V173.216ZM70.448 171.339C71.0255 169.62 72.428 167.922 74.4836 168.369C77.4742 168.575 78.3611 173.016 75.7417 174.384C73.3905 175.945 70.6542 173.807 70.448 171.339ZM105.648 173.312C106.219 170.768 109.553 169.538 111.753 170.885C113.21 171.504 113.637 173.099 114.008 174.46C113.812 175.167 113.628 175.878 113.458 176.591C112.557 177.636 111.395 178.688 109.897 178.654C107.112 178.977 104.596 175.876 105.641 173.312H105.648Z" fill="black"/>
</g>
<path d="M108.109 41.6626C111.402 39.9644 115.424 43.8901 113.678 47.1282C112.654 49.7682 108.797 50.4694 106.83 48.4551C104.747 46.5301 105.428 42.7076 108.109 41.6557V41.6626ZM72.6686 45.4163C74.6692 44.6051 77.2061 46.4063 76.9999 48.5582C77.2061 50.8819 74.3186 52.6007 72.2767 51.4938C69.5749 50.4626 69.8842 46.1451 72.6686 45.4163ZM145.255 51.5557C142.127 51.1844 141.632 46.3444 144.636 45.3682C146.974 44.2544 149.119 46.3513 149.462 48.5307C148.967 50.3869 147.386 52.0919 145.255 51.5557ZM80.733 60.2526C84.0811 58.1694 88.8524 61.2701 88.3367 65.0994C88.1649 68.9563 82.9536 71.1976 80.0111 68.5851C77.1649 66.5363 77.598 61.8338 80.733 60.2526ZM131.814 62.4663C133.306 58.6851 139.356 58.5613 141.054 62.2463C142.739 65.1132 140.669 68.6676 137.679 69.6438C133.712 70.3726 129.951 66.1513 131.814 62.4663ZM103.84 69.4307C103.805 66.1719 106.817 63.7519 109.959 63.5251C112.049 63.9376 114.317 64.8107 115.211 66.8801C116.882 69.7401 115.397 73.6657 112.392 74.9788C111.017 75.7351 109.381 75.4532 107.882 75.3638C105.593 74.2638 103.661 72.0844 103.84 69.4307ZM51.1361 74.1744C54.1955 72.3182 58.3205 75.6869 57.1586 78.9594C56.5261 81.7851 52.6624 82.9332 50.4555 81.1319C48.0974 79.4407 48.4686 75.3776 51.143 74.1676L51.1361 74.1744ZM164.312 74.1607C166.904 72.1807 171.187 74.4563 170.871 77.6738C171.05 80.6094 167.344 82.8301 164.773 81.3176C161.94 80.0594 161.645 75.7694 164.312 74.1676V74.1607ZM118.662 80.0113C122.939 78.4988 128.026 80.3069 130.46 84.0676C133.677 88.6532 131.972 95.6382 126.974 98.2713C121.804 101.386 114.249 98.7526 112.33 93.0601C110.165 87.9726 113.327 81.6063 118.656 80.0113H118.662ZM93.548 80.5132C98.2917 78.3132 104.679 80.1557 106.968 84.9269C109.663 89.5744 107.58 96.0438 102.76 98.4432C97.9342 101.145 91.1211 99.0963 88.7905 94.1119C86.1711 89.2857 88.4949 82.7338 93.548 80.5132ZM68.4061 88.9626C68.7705 85.9582 71.6511 83.9988 74.5592 83.7926C76.0759 83.9527 77.4933 84.6227 78.5798 85.6929C79.6663 86.7632 80.3575 88.1704 80.5405 89.6844C80.3342 92.7782 77.9074 95.7894 74.5799 95.7757C70.9155 96.0851 67.7049 92.4963 68.4061 88.9626ZM142.67 84.4526C146.43 82.3007 151.649 85.4288 151.484 89.6776C151.738 94.1807 145.963 97.3501 142.223 94.7101C138.332 92.5101 138.634 86.3226 142.67 84.4526ZM83.3386 100.313C87.7249 99.1238 92.7574 101.159 94.9092 105.133C97.2674 109.134 96.3049 114.689 92.6405 117.631C87.9311 121.935 79.2617 120.203 76.7592 114.331C73.8786 108.948 77.378 101.729 83.3317 100.306L83.3386 100.313ZM130.962 100.293C135.231 99.0894 140.25 100.705 142.546 104.534C145.585 108.914 144.134 115.452 139.617 118.271C134.874 121.55 127.545 119.831 124.932 114.703C121.77 109.402 124.953 101.908 130.962 100.293ZM55.0617 105.284C58.8567 103.874 63.0642 107.993 61.5243 111.698C60.5893 115.067 55.7561 116.318 53.2605 113.829C50.3386 111.492 51.418 106.301 55.0617 105.284ZM157.974 110.66C157.902 109.147 158.432 107.666 159.446 106.541C160.461 105.416 161.878 104.737 163.391 104.651C165.99 105.064 168.52 107.126 168.314 109.911C168.554 113.589 164.051 116.084 160.861 114.359C159.369 113.609 158.606 112.104 157.974 110.66ZM36.3961 107.113C38.6786 106.129 41.5042 108.075 40.9817 110.571C40.858 113.396 36.6161 114.489 35.0624 112.124C33.6874 110.481 34.5124 107.958 36.3961 107.106V107.113ZM180.42 107.051C182.029 105.93 184.614 106.734 185.247 108.584C186.326 110.605 184.346 113.369 182.036 113.032C178.791 113.321 177.746 108.46 180.42 107.051ZM95.7411 120.615C101.75 119.082 108.212 124.011 108.254 130.103C108.639 136.256 102.272 141.708 96.1261 140.291C91.3686 139.535 87.6355 135.025 87.7936 130.302C87.7799 125.778 91.2449 121.571 95.7411 120.615ZM119.542 120.608C125.64 118.931 132.295 123.949 132.199 130.178C132.522 136.214 126.355 141.488 120.333 140.284C114.661 139.569 110.481 133.444 112.062 128.026C112.86 124.424 115.926 121.495 119.542 120.601V120.608ZM73.6449 124.355C77.8661 123.647 81.8261 128.274 80.1142 132.22C78.863 136.428 72.648 137.562 69.898 134.131C66.6805 130.831 69.0867 124.809 73.6449 124.355ZM143.454 124.541C147.221 122.987 151.841 126.191 151.552 130.213C151.704 134.633 145.997 137.686 142.319 135.101C138.146 132.784 138.909 125.957 143.454 124.541ZM162.965 143.791C161.494 141.089 164.168 137.507 167.227 138.009C168.74 137.981 169.805 139.157 170.775 140.147C170.974 141.749 171.311 143.66 169.957 144.891C168.121 147.18 163.962 146.527 162.965 143.791ZM51.1224 138.758C53.9755 136.895 58.0799 139.679 57.4336 142.952C57.0899 145.86 53.3774 147.517 50.9367 145.867C48.3105 144.375 48.4067 140.119 51.1224 138.758ZM107.449 144.829C111.182 143.213 115.94 146.41 115.582 150.453C115.857 154.921 109.979 158.015 106.329 155.334C102.272 153.031 102.953 146.252 107.449 144.829ZM81.3655 150.817C84.5417 149.174 88.8042 152.013 88.5155 155.519C88.6117 158.393 85.7655 160.841 82.878 160.414C80.4924 160.366 78.9386 158.256 78.1686 156.255C78.2099 154.076 79.1242 151.649 81.3655 150.824V150.817ZM134.207 150.872C137.479 148.878 142.127 151.738 141.817 155.478C141.9 159.397 136.647 161.899 133.602 159.328C130.659 157.314 131.017 152.474 134.207 150.872ZM143.399 173.216C141.941 171.057 143.653 168.451 146.011 167.956C147.915 168.334 149.93 169.744 149.524 171.903C149.249 174.838 144.89 175.732 143.399 173.223V173.216ZM70.448 171.339C71.0255 169.62 72.428 167.922 74.4836 168.369C77.4742 168.575 78.3611 173.016 75.7417 174.384C73.3905 175.945 70.6542 173.807 70.448 171.339ZM105.648 173.312C106.219 170.768 109.553 169.538 111.753 170.885C113.21 171.504 113.637 173.099 114.008 174.46C113.812 175.167 113.628 175.878 113.458 176.591C112.557 177.636 111.395 178.688 109.897 178.654C107.112 178.977 104.596 175.876 105.641 173.312H105.648Z" fill="white"/>
</g>
<defs>
<filter id="filter0_d_108_21" x="33.3779" y="40.7529" width="153.172" height="139.424" filterUnits="userSpaceOnUse" color-interpolation-filters="sRGB">
<feFlood flood-opacity="0" result="BackgroundImageFix"/>
<feColorMatrix in="SourceAlpha" type="matrix" values="0 0 0 0 0 0 0 0 0 0 0 0 0 0 0 0 0 0 127 0" result="hardAlpha"/>
<feOffset dy="0.5"/>
<feGaussianBlur stdDeviation="0.5"/>
<feColorMatrix type="matrix" values="0 0 0 0 0 0 0 0 0 0 0 0 0 0 0 0 0 0 0.204257 0"/>
<feBlend mode="normal" in2="BackgroundImageFix" result="effect1_dropShadow_108_21"/>
<feBlend mode="normal" in="SourceGraphic" in2="effect1_dropShadow_108_21" result="shape"/>
</filter>
<clipPath id="clip0_108_21">
<rect width="220" height="220" fill="white"/>
</clipPath>
</defs>
</svg>
