<svg width="220" height="220" viewBox="0 0 220 220" fill="none" xmlns="http://www.w3.org/2000/svg">
<g clip-path="url(#clip0_108_140)">
<path d="M110 220C170.751 220 220 170.751 220 110C220 49.2487 170.751 0 110 0C49.2487 0 0 49.2487 0 110C0 170.751 49.2487 220 110 220Z" fill="#E6007A"/>
<path d="M111.87 45.5469C86.3844 45.5469 65.5601 66.2544 65.5601 91.8569C65.5601 97.0063 66.4126 102.032 68.0076 106.927C68.5722 108.543 69.7487 109.873 71.2839 110.63C72.8191 111.387 74.5903 111.512 76.2163 110.976C77.8311 110.41 79.1593 109.233 79.9153 107.698C80.6713 106.163 80.7946 104.393 80.2588 102.767C78.9146 98.9511 78.2921 94.9179 78.4232 90.8738C78.9113 73.6038 92.8813 59.3862 110.158 58.5337C114.684 58.296 119.21 58.9813 123.463 60.548C127.715 62.1147 131.604 64.5301 134.894 67.6472C138.183 70.7643 140.804 74.518 142.597 78.6799C144.39 82.8419 145.318 87.3251 145.324 91.8569C145.314 100.38 142.048 108.576 136.196 114.772C130.343 120.967 122.345 124.693 113.836 125.187C113.836 125.187 107.339 125.551 104.156 126.046C102.561 126.287 101.338 126.534 100.478 126.658C100.107 126.782 99.7426 126.411 99.8594 126.039L100.966 120.656L106.968 92.9638C107.318 91.308 107 89.581 106.083 88.1584C105.167 86.7358 103.726 85.7326 102.073 85.3669C100.416 85.0172 98.6886 85.3362 97.2658 86.2542C95.843 87.1723 94.8405 88.6151 94.4763 90.2687C94.4763 90.2687 80.0182 157.657 79.8944 158.393C79.5448 160.05 79.8637 161.778 80.7818 163.2C81.6998 164.623 83.1427 165.626 84.7963 165.99C86.4531 166.34 88.1809 166.021 89.6037 165.103C91.0264 164.185 92.029 162.742 92.3932 161.088C92.5101 160.353 94.4763 151.408 94.4763 151.408C95.1722 148.129 96.8639 145.144 99.3201 142.863C101.776 140.582 104.877 139.114 108.199 138.662C110.602 138.399 113.011 138.195 115.424 138.05C127.057 137.143 137.92 131.884 145.846 123.322C153.772 114.76 158.179 103.525 158.187 91.8569C158.187 66.2544 137.356 45.5469 111.87 45.5469ZM115.177 152.144C114.179 151.929 113.149 151.914 112.146 152.099C111.142 152.285 110.185 152.669 109.331 153.227C108.477 153.785 107.742 154.507 107.169 155.352C106.595 156.196 106.195 157.146 105.992 158.146C105.133 162.312 107.711 166.478 111.994 167.338C112.992 167.554 114.024 167.569 115.029 167.383C116.033 167.197 116.991 166.814 117.846 166.255C118.701 165.696 119.437 164.973 120.01 164.127C120.583 163.281 120.983 162.33 121.186 161.329C122.038 157.046 119.467 152.996 115.177 152.144Z" fill="white"/>
</g>
<defs>
<clipPath id="clip0_108_140">
<rect width="220" height="220" fill="white"/>
</clipPath>
</defs>
</svg>
